<svg width="75" height="57" viewBox="0 0 75 57" fill="none" xmlns="http://www.w3.org/2000/svg">
<g clip-path="url(#clip0_3_51909)">
<path d="M68.919 51.5584C68.3784 53.735 67.973 55.0954 67.7027 55.2314C65.6757 56.7279 10.5406 59.0405 7.1622 53.735C6.62166 52.9188 4.4595 50.3341 3.78382 47.8854C3.64869 47.4773 3.51355 46.9331 3.37842 46.525C-2.43239 22.1742 0.675716 4.21713 1.89193 3.67298C11.3514 -0.40817 72.5676 -1.2244 74.5946 1.76844C76.3514 4.35317 71.6217 39.8591 68.919 51.5584Z" fill="url(#paint0_linear_3_51909)"/>
<path opacity="0.4" d="M74.7299 1.90451C74.3244 -1.90455 69.7298 15.9164 68.3785 29.7923C67.2974 39.8592 67.1623 53.8711 67.4326 54.5513C67.838 55.2315 76.3515 18.3651 74.7299 1.90451Z" fill="#C60055"/>
<path opacity="0.4" d="M68.9191 51.5584C68.3785 53.735 67.9731 55.0954 67.7029 55.2315C65.6758 56.7279 10.5407 59.0405 7.16232 53.735C6.62178 52.9188 4.05421 49.1097 3.51367 46.525C6.35151 52.6467 16.2164 57.272 39.7299 56.4558C63.2434 55.6396 67.1623 54.8234 68.9191 51.5584Z" fill="#C60055"/>
<path opacity="0.4" d="M1.8919 3.67292C1.62163 5.84953 18.3784 28.0237 29.5946 33.4653C40.8108 38.9068 68.3784 5.44141 74.7297 1.90442C74.7297 1.90442 75 2.1765 75 3.67292C75 5.16934 49.4595 24.4868 44.5946 29.7922C39.8649 35.0977 64.0541 54.1431 67.8378 55.3674C67.8378 55.3674 66.8919 55.9116 66.3514 55.7755C65.8108 55.3674 46.7568 41.3555 41.8919 31.5607C41.8919 31.5607 36.6216 36.186 33.5135 36.3221C30.4054 36.4581 26.8919 32.2409 26.0811 31.9689C26.0811 31.9689 10.8108 46.1168 9.05406 54.5512C9.05406 54.5512 9.05406 55.2314 8.10812 53.735C7.16217 52.2385 24.8649 32.1049 24.8649 31.6968C24.8649 31.2887 7.29731 14.556 1.8919 3.67292Z" fill="#C60055"/>
<path opacity="0.4" d="M27.7026 32.513C27.7026 32.513 31.7567 38.0906 33.6486 38.0906C37.1621 38.0906 41.3513 37.1383 52.7026 27.0715C73.108 8.97844 73.7837 2.44861 73.7837 2.44861C73.7837 2.44861 67.027 9.11448 56.2161 19.0453C45.4053 28.9761 37.1621 33.1932 34.7297 34.0095C32.5675 34.6897 27.7026 32.513 27.7026 32.513Z" fill="#C60055"/>
<path opacity="0.3" d="M74.7296 1.90443C74.4594 1.76839 66.7567 -1.08841 47.7026 1.90443C28.108 4.89727 5.54046 0.680083 2.97289 4.48915C0.270188 8.16218 1.21613 12.3794 0.945864 20.9498C0.675593 29.1121 3.24316 45.0285 3.51343 46.525C-2.43251 22.1741 0.675593 4.21708 1.89181 3.67292C11.3513 -0.408223 72.5675 -1.08841 74.7296 1.90443Z" fill="#C60055"/>
<path opacity="0.3" d="M4.8648 4.6252C3.51345 5.30539 11.4864 14.556 18.7837 23.2624C26.081 31.9689 38.7837 31.1526 47.027 25.5751C55.2702 19.9975 71.081 4.21709 70.2702 2.44859C69.4594 0.680096 50.6756 2.58463 35.4053 3.40086C19.9999 4.21709 7.02696 3.5369 4.8648 4.6252Z" fill="#FFB64A"/>
<path opacity="0.2" d="M8.91893 54.4153C8.10812 52.5107 17.973 40.9475 35.1351 41.2196C52.2973 41.6277 64.4595 55.5036 64.4595 55.5036C64.4595 55.5036 28.7838 59.0406 8.91893 54.4153Z" fill="#EB5694"/>
<path opacity="0.4" d="M54.865 45.8448C54.865 45.8448 58.7839 49.926 61.892 52.3747C65.1353 54.8234 66.2163 55.6396 66.2163 55.6396C66.2163 55.6396 67.5677 56.1837 68.1082 54.5513C68.6488 52.7828 62.838 52.9188 54.865 45.8448Z" fill="#C60055"/>
<path d="M42.9729 33.4653C41.8919 32.7852 46.2162 41.0835 52.7027 46.389C59.054 51.6945 64.4594 54.5513 64.4594 54.5513C64.4594 54.5513 55.9459 45.8448 42.9729 33.4653Z" fill="#FFD8A7"/>
<path d="M9.45947 52.7828C9.45947 52.7828 19.5946 38.3627 26.0811 31.8329C26.0811 31.9689 13.2433 40.2673 9.45947 52.7828Z" fill="#FFD8A7"/>
<path opacity="0.4" d="M68.3784 28.568C67.2974 42.852 72.1622 29.2482 73.6487 20.9498C75.1352 12.6515 73.7839 3.26487 73.7839 2.44864C73.7839 1.49637 69.3244 16.4606 68.3784 28.568Z" fill="#C60055"/>
<path opacity="0.2" d="M10.5405 29.5202C10.6757 27.8878 12.7027 28.0238 12.973 28.704C13.2432 29.3842 12.5676 31.0166 11.6216 31.2887C10.6757 31.5608 10.5405 30.3364 10.5405 29.5202Z" fill="#C60055"/>
<path opacity="0.2" d="M57.8379 7.20991C57.973 5.57746 60.0001 5.71349 60.2703 6.39368C60.5406 7.07388 59.8649 8.70633 58.919 8.97841C57.973 9.11445 57.8379 7.89011 57.8379 7.20991Z" fill="#C60055"/>
<path opacity="0.2" d="M9.8648 28.2958C11.081 26.7994 9.59453 21.902 6.21615 22.1741C2.83778 22.4462 4.4594 27.3436 6.21615 28.5679C7.83777 29.6562 9.18913 28.976 9.8648 28.2958Z" fill="#C60055"/>
<path d="M33.5136 34.0095C31.892 33.7374 53.6487 21.2219 53.6487 21.2219C53.6487 21.2219 41.0812 32.6491 33.5136 34.0095Z" fill="#FFC59F"/>
<path opacity="0.4" d="M1.89185 3.67297C1.89185 3.67297 3.6486 9.79469 9.86482 17.8209C16.081 25.8472 27.7027 32.5131 27.7027 32.5131C27.7027 32.5131 8.91887 17.4128 1.89185 3.67297Z" fill="#C60055"/>
<path d="M27.5677 18.6372C22.2974 20.6778 20.2704 24.3508 19.5947 30.8806C18.7839 37.4105 33.2434 45.8448 39.865 40.1312C46.4866 34.5537 46.2164 25.8472 44.3245 21.0859C42.4326 16.4606 30.4056 17.5489 27.5677 18.6372Z" fill="url(#paint1_linear_3_51909)"/>
<path opacity="0.8" d="M41.2165 29.5203C41.2165 34.2816 37.2976 38.2267 32.5678 38.2267C27.8381 38.2267 23.9192 34.2816 23.9192 29.5203C23.9192 24.759 27.8381 20.8138 32.5678 20.8138C37.2976 20.8138 41.2165 24.759 41.2165 29.5203Z" fill="#D40055"/>
<path d="M33.6487 37.2745C37.7536 37.2745 41.0812 33.8028 41.0812 29.5203C41.0812 25.2378 37.7536 21.7661 33.6487 21.7661C29.5439 21.7661 26.2163 25.2378 26.2163 29.5203C26.2163 33.8028 29.5439 37.2745 33.6487 37.2745Z" fill="#F20041"/>
<path opacity="0.8" d="M20.1353 33.8734C20.1353 33.8734 24.4596 39.7231 32.4326 40.6753C40.4055 41.6276 43.6488 35.3699 44.5947 30.3364C45.5407 25.303 43.1082 19.7255 43.1082 19.7255C43.1082 19.7255 44.5947 20.8138 44.865 21.766C45.1353 22.7183 45.8109 33.0572 46.0812 35.914C46.3515 38.7708 41.892 42.988 34.3244 43.5321C26.7569 43.9403 21.7569 36.8663 20.1353 33.8734Z" fill="#C90055"/>
<path opacity="0.5" d="M23.9192 28.432C24.3246 32.9212 23.3786 31.4248 27.0273 25.8472C30.6759 20.2697 39.5949 25.031 40.4057 25.8472C41.2165 26.6635 37.703 19.5895 31.3516 20.8138C25.0003 21.9021 23.9192 28.432 23.9192 28.432Z" fill="#A10055"/>
<path opacity="0.3" d="M20.1353 32.7851C20.811 35.778 23.9191 35.778 24.5948 35.5059C25.2705 35.2338 22.2975 30.6085 24.1894 25.4391C26.2164 20.1336 30.9461 18.5011 36.757 20.8138C42.5678 23.1264 42.5678 20.6777 42.0272 19.7255C41.4867 18.7732 30.9461 15.9164 25.4056 19.7255C19.8651 23.5345 19.8651 31.1527 20.1353 32.7851Z" fill="#FFB64A"/>
<path opacity="0.3" d="M35.5408 40.6754C33.9192 39.315 40.0002 35.778 42.0273 31.5608C44.0543 27.3436 43.784 32.6491 42.5678 36.0501C41.3516 39.5871 35.5408 40.6754 35.5408 40.6754Z" fill="#FFB64A"/>
<path d="M34.0543 18.2291C32.4326 18.6372 35.6759 20.9499 38.2434 20.6778C40.811 20.2697 37.7029 17.4129 34.0543 18.2291Z" fill="white"/>
<path d="M35.5408 40.2673C34.7299 40.1313 37.1624 37.9547 37.8381 38.2268C38.6489 38.4988 37.4326 40.6754 35.5408 40.2673Z" fill="white"/>
<path opacity="0.2" d="M49.054 35.9141C49.3243 38.7709 61.7567 51.5584 65.1351 52.3747C68.5135 53.1909 65.9459 29.6563 65.8107 23.2625C65.6756 16.8687 48.7837 32.5131 49.054 35.9141Z" fill="#EB5694"/>
<path opacity="0.2" d="M52.7026 46.3889C48.6486 44.3483 54.7297 51.0142 57.4324 53.4629C60.2702 55.9116 63.9189 55.5035 64.4594 55.2314C64.9999 55.0953 57.1621 50.7421 52.7026 46.3889Z" fill="#DC6A94"/>
<path d="M4.18931 5.84965C7.02714 10.2029 13.7839 5.84965 22.4325 4.35323C31.0812 2.99284 9.59471 2.04058 6.4866 2.99284C3.3785 3.94511 4.18931 5.84965 4.18931 5.84965Z" fill="#FFD8A7"/>
</g>
<defs>
<linearGradient id="paint0_linear_3_51909" x1="37.5296" y1="57.0512" x2="37.5296" y2="-5.81454e-05" gradientUnits="userSpaceOnUse">
<stop stop-color="#FFA274"/>
<stop offset="1" stop-color="#FFC488"/>
</linearGradient>
<linearGradient id="paint1_linear_3_51909" x1="32.5291" y1="42.0471" x2="32.5291" y2="17.7283" gradientUnits="userSpaceOnUse">
<stop stop-color="#DE0086"/>
<stop offset="1" stop-color="#FF003B"/>
</linearGradient>
<clipPath id="clip0_3_51909">
<rect width="75" height="57" fill="white"/>
</clipPath>
</defs>
</svg>
