<svg width="0" height="0" class="hidden">
  <defs>
    <symbol id="arrow-top" viewBox="0 0 8 16" fill="none" xmlns="http://www.w3.org/2000/svg">
      <path d="M4.30515 14.2443C4.31088 14.2064 4.31353 14.1681 4.31306 14.1298V2.0541L4.3748 2.1964C4.43621 2.33549 4.51979 2.46202 4.62175 2.57033L6.3288 4.4003C6.54341 4.64131 6.88866 4.68181 7.14682 4.49627C7.42192 4.28032 7.48165 3.8662 7.28022 3.57127C7.26393 3.54745 7.24618 3.5248 7.22708 3.50352L4.1402 0.194353C3.89923 -0.0642586 3.50833 -0.0644861 3.26709 0.193836L0.179726 3.50352C-0.0610315 3.76234 -0.0604915 4.18138 0.180941 4.43949C0.199945 4.4598 0.220164 4.47877 0.241463 4.49627C0.499623 4.68181 0.844872 4.64131 1.05949 4.4003L2.76962 2.57364C2.8603 2.47654 2.93633 2.3649 2.99496 2.24273L3.07831 2.04418L3.07831 14.0934C3.0666 14.4315 3.28691 14.7281 3.59691 14.7916C3.93347 14.8501 4.25055 14.6051 4.30515 14.2443Z" fill="currentColor"/>
    </symbol>
    <symbol id="arrow-left" viewBox="0 0 13 21" fill="none" xmlns="http://www.w3.org/2000/svg">
      <path fill-rule="evenodd" clip-rule="evenodd" d="M10.0371 20.0827L0.792152 10.9458C0.402616 10.5612 0.402616 9.93981 0.792152 9.5542L10.0371 0.417333C10.5995 -0.139111 11.5144 -0.139111 12.0777 0.417333C12.64 0.973776 12.64 1.87687 12.0777 2.43332L4.16913 10.2505L12.0777 18.0657C12.64 18.6231 12.64 19.5262 12.0777 20.0827C11.5144 20.6391 10.5995 20.6391 10.0371 20.0827Z" fill="currentColor"/>
    </symbol>
  </defs>
</svg>